ffmpeg version 3.4.8-0ubuntu0.2 Copyright (c) 2000-2020 the FFmpeg developers
  built with gcc 7 (Ubuntu 7.5.0-3ubuntu1~18.04)
  configuration: --prefix=/usr --extra-version=0ubuntu0.2 --toolchain=hardened --libdir=/usr/lib/x86_64-linux-gnu --incdir=/usr/include/x86_64-linux-gnu --enable-gpl --disable-stripping --enable-avresample --enable-avisynth --enable-gnutls --enable-ladspa --enable-libass --enable-libbluray --enable-libbs2b --enable-libcaca --enable-libcdio --enable-libflite --enable-libfontconfig --enable-libfreetype --enable-libfribidi --enable-libgme --enable-libgsm --enable-libmp3lame --enable-libmysofa --enable-libopenjpeg --enable-libopenmpt --enable-libopus --enable-libpulse --enable-librubberband --enable-librsvg --enable-libshine --enable-libsnappy --enable-libsoxr --enable-libspeex --enable-libssh --enable-libtheora --enable-libtwolame --enable-libvorbis --enable-libvpx --enable-libwavpack --enable-libwebp --enable-libx265 --enable-libxml2 --enable-libxvid --enable-libzmq --enable-libzvbi --enable-omx --enable-openal --enable-opengl --enable-sdl2 --enable-libdc1394 --enable-libdrm --enable-libiec61883 --enable-chromaprint --enable-frei0r --enable-libopencv --enable-libx264 --enable-shared
  libavutil      55. 78.100 / 55. 78.100
  libavcodec     57.107.100 / 57.107.100
  libavformat    57. 83.100 / 57. 83.100
  libavdevice    57. 10.100 / 57. 10.100
  libavfilter     6.107.100 /  6.107.100
  libavresample   3.  7.  0 /  3.  7.  0
  libswscale      4.  8.100 /  4.  8.100
  libswresample   2.  9.100 /  2.  9.100
  libpostproc    54.  7.100 / 54.  7.100
Input #0, matroska,webm, from '../.././Samples/9_AVC_8bits_3840x2160_60_000fps.mkv':
  Metadata:
    encoder         : Haali Matroska Writer b0
  Duration: 00:00:08.33, start: 0.000000, bitrate: 118015 kb/s
    Stream #0:0(eng): Video: h264 (Main), yuv420p(progressive), 3840x2160 [SAR 1:1 DAR 16:9], 60 fps, 60 tbr, 20k tbn, 120 tbc (default)
Stream mapping:
  Stream #0:0 -> #0:0 (h264 (native) -> h264 (libx264))
Press [q] to stop, [?] for help
[libx264 @ 0x55744aa7f900] using SAR=1/1
[libx264 @ 0x55744aa7f900] using cpu capabilities: MMX2 SSE2Fast SSSE3 SSE4.2 AVX FMA3 BMI2 AVX2
[libx264 @ 0x55744aa7f900] profile High, level 5.2
[libx264 @ 0x55744aa7f900] 264 - core 152 r2854 e9a5903 - H.264/MPEG-4 AVC codec - Copyleft 2003-2017 - http://www.videolan.org/x264.html - options: cabac=1 ref=3 deblock=1:0:0 analyse=0x3:0x113 me=hex subme=7 psy=1 psy_rd=1.00:0.00 mixed_ref=1 me_range=16 chroma_me=1 trellis=1 8x8dct=1 cqm=0 deadzone=21,11 fast_pskip=1 chroma_qp_offset=-2 threads=6 lookahead_threads=1 sliced_threads=0 nr=0 decimate=1 interlaced=0 bluray_compat=0 constrained_intra=0 bframes=3 b_pyramid=2 b_adapt=1 b_bias=0 direct=1 weightb=1 open_gop=0 weightp=2 keyint=250 keyint_min=25 scenecut=40 intra_refresh=0 rc_lookahead=40 rc=crf mbtree=1 crf=23.0 qcomp=0.60 qpmin=0 qpmax=69 qpstep=4 ip_ratio=1.40 aq=1:1.00
Output #0, mov, to '/home/aleksandr/Pract/Samples/9_AVC_8bits_3840x2160_60_000fps.mkv_tc/output_tc2.mov':
  Metadata:
    encoder         : Lavf57.83.100
    Stream #0:0(eng): Video: h264 (libx264) (avc1 / 0x31637661), yuv420p, 3840x2160 [SAR 1:1 DAR 16:9], q=-1--1, 60 fps, 15360 tbn, 60 tbc (default)
    Metadata:
      encoder         : Lavc57.107.100 libx264
    Side data:
      cpb: bitrate max/min/avg: 0/0/0 buffer size: 0 vbv_delay: -1
frame=   18 fps=0.0 q=0.0 size=       0kB time=00:00:00.00 bitrate=N/A speed=   0x    frame=   35 fps= 33 q=0.0 size=       0kB time=00:00:00.00 bitrate=N/A speed=   0x    frame=   47 fps= 12 q=0.0 size=       0kB time=00:00:00.00 bitrate=N/A speed=   0x    frame=   52 fps= 12 q=31.0 size=     512kB time=-00:00:00.01 bitrate=N/A speed=N/A    frame=   53 fps= 10 q=31.0 size=     768kB time=00:00:00.00 bitrate=96796061.5kbits/s speed=1.24e-05x    frame=   57 fps=8.2 q=31.0 size=    1280kB time=00:00:00.06 bitrate=157136.7kbits/s speed=0.00963x    frame=   61 fps=7.6 q=31.0 size=    1792kB time=00:00:00.13 bitrate=110049.3kbits/s speed=0.0166x    frame=   65 fps=6.9 q=31.0 size=    2560kB time=00:00:00.20 bitrate=104825.0kbits/s speed=0.0212x    frame=   69 fps=6.5 q=31.0 size=    3072kB time=00:00:00.26 bitrate=94349.8kbits/s speed=0.0252x    frame=   73 fps=6.2 q=31.0 size=    3584kB time=00:00:00.33 bitrate=88064.2kbits/s speed=0.0282x    frame=   77 fps=5.9 q=31.0 size=    4096kB time=00:00:00.40 bitrate=83873.2kbits/s speed=0.0305x    frame=   81 fps=5.6 q=31.0 size=    4864kB time=00:00:00.46 bitrate=85372.7kbits/s speed=0.0322x    frame=   85 fps=5.4 q=31.0 size=    5376kB time=00:00:00.53 bitrate=82565.9kbits/s speed=0.0342x    frame=   89 fps=5.2 q=31.0 size=    5888kB time=00:00:00.60 bitrate=80382.6kbits/s speed=0.0352x    frame=   93 fps=5.1 q=31.0 size=    6400kB time=00:00:00.66 bitrate=78635.9kbits/s speed=0.0368x    frame=   97 fps=5.0 q=31.0 size=    7168kB time=00:00:00.73 bitrate=80066.4kbits/s speed=0.0374x    frame=  101 fps=4.9 q=31.0 size=    7680kB time=00:00:00.80 bitrate=78637.2kbits/s speed=0.0388x    frame=  105 fps=4.7 q=31.0 size=    8192kB time=00:00:00.86 bitrate=77427.8kbits/s speed=0.039x    frame=  109 fps=4.7 q=31.0 size=    8704kB time=00:00:00.93 bitrate=76391.3kbits/s speed=0.0402x    frame=  113 fps=4.6 q=31.0 size=    9472kB time=00:00:01.00 bitrate=77589.9kbits/s speed=0.0405x    frame=  117 fps=4.5 q=31.0 size=    9984kB time=00:00:01.06 bitrate=76672.7kbits/s speed=0.0411x    frame=  121 fps=4.4 q=31.0 size=   10496kB time=00:00:01.13 bitrate=75863.5kbits/s speed=0.0415x    frame=  125 fps=4.4 q=31.0 size=   11264kB time=00:00:01.20 bitrate=76891.6kbits/s speed=0.042x    frame=  129 fps=4.3 q=31.0 size=   11776kB time=00:00:01.26 bitrate=76156.0kbits/s speed=0.0426x    frame=  133 fps=4.2 q=31.0 size=   12288kB time=00:00:01.33 bitrate=75494.0kbits/s speed=0.0424x    frame=  137 fps=4.2 q=31.0 size=   13056kB time=00:00:01.40 bitrate=76392.9kbits/s speed=0.0434x    frame=  140 fps=4.2 q=31.0 size=   13568kB time=00:00:01.45 bitrate=76651.3kbits/s speed=0.0439x    frame=  141 fps=4.1 q=31.0 size=   13824kB time=00:00:01.46 bitrate=77210.1kbits/s speed=0.043x    frame=  144 fps=4.2 q=31.0 size=   14336kB time=00:00:01.51 bitrate=77430.2kbits/s speed=0.0438x    frame=  145 fps=4.1 q=31.0 size=   14592kB time=00:00:01.53 bitrate=77956.2kbits/s speed=0.0436x    frame=  148 fps=4.1 q=31.0 size=   15104kB time=00:00:01.58 bitrate=78143.5kbits/s speed=0.0437x    frame=  149 fps=4.0 q=31.0 size=   15360kB time=00:00:01.60 bitrate=78640.2kbits/s speed=0.0432x    frame=  151 fps=4.0 q=31.0 size=   15616kB time=00:00:01.63 bitrate=78319.3kbits/s speed=0.0435x    frame=  153 fps=4.0 q=31.0 size=   16128kB time=00:00:01.66 bitrate=79269.4kbits/s speed=0.0437x    frame=  156 fps=4.0 q=31.0 size=   16896kB time=00:00:01.71 bitrate=80625.5kbits/s speed=0.0444x    frame=  157 fps=3.9 q=31.0 size=   17152kB time=00:00:01.73 bitrate=81060.1kbits/s speed=0.0432x    frame=  161 fps=3.9 q=31.0 size=   17920kB time=00:00:01.80 bitrate=81553.1kbits/s speed=0.0436x    frame=  163 fps=3.9 q=31.0 size=   18176kB time=00:00:01.83 bitrate=81214.3kbits/s speed=0.0438x    frame=  164 fps=3.8 q=29.0 size=   18688kB time=00:00:01.85 bitrate=82749.7kbits/s speed=0.0429x    frame=  169 fps=3.8 q=31.0 size=   19968kB time=00:00:01.93 bitrate=84606.6kbits/s speed=0.0432x    frame=  173 fps=3.8 q=31.0 size=   20992kB time=00:00:02.00 bitrate=85980.6kbits/s speed=0.0441x    frame=  175 fps=3.7 q=31.0 size=   21760kB time=00:00:02.03 bitrate=87665.2kbits/s speed=0.0433x    frame=  178 fps=3.7 q=31.0 size=   22272kB time=00:00:02.08 bitrate=87574.5kbits/s speed=0.0439x    frame=  180 fps=3.7 q=31.0 size=   22784kB time=00:00:02.11 bitrate=88176.9kbits/s speed=0.044x    frame=  181 fps=3.7 q=31.0 size=   23040kB time=00:00:02.13 bitrate=88471.1kbits/s speed=0.0438x    frame=  183 fps=3.7 q=31.0 size=   23808kB time=00:00:02.16 bitrate=90013.6kbits/s speed=0.0434x    frame=  185 fps=3.7 q=31.0 size=   24064kB time=00:00:02.20 bitrate=89603.1kbits/s speed=0.0436x    frame=  187 fps=3.6 q=31.0 size=   24832kB time=00:00:02.23 bitrate=91082.8kbits/s speed=0.0436x    frame=  188 fps=3.6 q=31.0 size=   25088kB time=00:00:02.25 bitrate=91340.1kbits/s speed=0.0434x    frame=  191 fps=3.6 q=31.0 size=   25856kB time=00:00:02.30 bitrate=92089.8kbits/s speed=0.0432x    frame=  195 fps=3.6 q=31.0 size=   26880kB time=00:00:02.36 bitrate=93040.2kbits/s speed=0.0433x    frame=  198 fps=3.6 q=31.0 size=   27648kB time=00:00:02.41 bitrate=93718.6kbits/s speed=0.0435x    frame=  199 fps=3.5 q=31.0 size=   27904kB time=00:00:02.43 bitrate=93938.5kbits/s speed=0.0433x    frame=  200 fps=3.5 q=31.0 size=   28160kB time=00:00:02.45 bitrate=94155.5kbits/s speed=0.043x    frame=  204 fps=3.5 q=31.0 size=   29184kB time=00:00:02.51 bitrate=94994.5kbits/s speed=0.0434x    frame=  207 fps=3.5 q=31.0 size=   29952kB time=00:00:02.56 bitrate=95595.1kbits/s speed=0.0429x    frame=  211 fps=3.5 q=31.0 size=   31232kB time=00:00:02.63 bitrate=97156.9kbits/s speed=0.0433x    frame=  214 fps=3.5 q=31.0 size=   32000kB time=00:00:02.68 bitrate=97691.2kbits/s speed=0.0436x    frame=  215 fps=3.4 q=31.0 size=   32256kB time=00:00:02.70 bitrate=97864.8kbits/s speed=0.043x    frame=  218 fps=3.4 q=31.0 size=   33024kB time=00:00:02.75 bitrate=98373.3kbits/s speed=0.0434x    frame=  220 fps=3.4 q=31.0 size=   33536kB time=00:00:02.78 bitrate=98702.1kbits/s speed=0.0434x    frame=  222 fps=3.4 q=31.0 size=   34048kB time=00:00:02.81 bitrate=99023.1kbits/s speed=0.0435x    frame=  223 fps=3.4 q=31.0 size=   34304kB time=00:00:02.83 bitrate=99180.8kbits/s speed=0.0428x    frame=  227 fps=3.4 q=31.0 size=   35584kB time=00:00:02.90 bitrate=100516.5kbits/s speed=0.043x    frame=  231 fps=3.3 q=31.0 size=   36608kB time=00:00:02.96 bitrate=101085.3kbits/s speed=0.0428x    frame=  235 fps=3.3 q=31.0 size=   37632kB time=00:00:03.03 bitrate=101629.1kbits/s speed=0.0431x    frame=  237 fps=3.3 q=31.0 size=   38144kB time=00:00:03.06 bitrate=101892.2kbits/s speed=0.0432x    frame=  239 fps=3.3 q=31.0 size=   38912kB time=00:00:03.10 bitrate=102826.0kbits/s speed=0.0427x    frame=  243 fps=3.3 q=31.0 size=   39936kB time=00:00:03.16 bitrate=103310.3kbits/s speed=0.043x    frame=  245 fps=3.3 q=31.0 size=   40448kB time=00:00:03.20 bitrate=103544.9kbits/s speed=0.0431x    frame=  247 fps=3.3 q=31.0 size=   40960kB time=00:00:03.23 bitrate=103774.6kbits/s speed=0.0427x    frame=  251 fps=3.2 q=31.0 size=   42240kB time=00:00:03.30 bitrate=104855.6kbits/s speed=0.0427x    frame=  255 fps=3.2 q=31.0 size=   43264kB time=00:00:03.36 bitrate=105270.9kbits/s speed=0.0427x    frame=  259 fps=3.2 q=31.0 size=   44544kB time=00:00:03.43 bitrate=106280.9kbits/s speed=0.0426x    frame=  262 fps=3.2 q=31.0 size=   45312kB time=00:00:03.48 bitrate=106561.5kbits/s speed=0.0428x    frame=  263 fps=3.2 q=31.0 size=   45568kB time=00:00:03.50 bitrate=106653.3kbits/s speed=0.0426x    frame=  267 fps=3.2 q=31.0 size=   46848kB time=00:00:03.56 bitrate=107599.6kbits/s speed=0.0425x    frame=  269 fps=3.2 q=31.0 size=   47104kB time=00:00:03.60 bitrate=107185.9kbits/s speed=0.0426x    frame=  271 fps=3.2 q=31.0 size=   47872kB time=00:00:03.63 bitrate=107934.1kbits/s speed=0.0427x    frame=  274 fps=3.2 q=31.0 size=   48896kB time=00:00:03.68 bitrate=108746.4kbits/s speed=0.0429x    frame=  275 fps=3.2 q=31.0 size=   49152kB time=00:00:03.70 bitrate=108823.4kbits/s speed=0.0424x    frame=  279 fps=3.2 q=31.0 size=   50176kB time=00:00:03.76 bitrate=109124.3kbits/s speed=0.0426x    frame=  281 fps=3.2 q=31.0 size=   50688kB time=00:00:03.80 bitrate=109270.9kbits/s speed=0.0426x    frame=  283 fps=3.1 q=31.0 size=   51456kB time=00:00:03.83 bitrate=109961.9kbits/s speed=0.0425x    frame=  285 fps=3.1 q=31.0 size=   51712kB time=00:00:03.86 bitrate=109556.3kbits/s speed=0.0426x    frame=  287 fps=3.1 q=31.0 size=   52480kB time=00:00:03.90 bitrate=110233.1kbits/s speed=0.0424x    frame=  291 fps=3.1 q=31.0 size=   53760kB time=00:00:03.96 bitrate=111023.9kbits/s speed=0.0424x    frame=  293 fps=3.1 q=31.0 size=   54016kB time=00:00:04.00 bitrate=110623.0kbits/s speed=0.0425x    frame=  294 fps=3.1 q=31.0 size=   54528kB time=00:00:04.01 bitrate=111208.2kbits/s speed=0.0421x    frame=  299 fps=3.1 q=31.0 size=   55808kB time=00:00:04.10 bitrate=111505.4kbits/s speed=0.042x    frame=  305 fps=3.1 q=31.0 size=   58368kB time=00:00:04.20 bitrate=113843.7kbits/s speed=0.0426x    frame=  306 fps=3.1 q=31.0 size=   58624kB time=00:00:04.21 bitrate=113891.1kbits/s speed=0.0422x    frame=  310 fps=3.1 q=31.0 size=   59648kB time=00:00:04.28 bitrate=114076.9kbits/s speed=0.0423x    frame=  313 fps=3.1 q=31.0 size=   60416kB time=00:00:04.33 bitrate=114212.5kbits/s speed=0.0426x    frame=  314 fps=3.1 q=31.0 size=   60672kB time=00:00:04.35 bitrate=114257.0kbits/s speed=0.0423x    frame=  318 fps=3.1 q=31.0 size=   61696kB time=00:00:04.41 bitrate=114431.6kbits/s speed=0.0425x    frame=  320 fps=3.1 q=31.0 size=   62208kB time=00:00:04.45 bitrate=114517.0kbits/s speed=0.0425x    frame=  322 fps=3.0 q=31.0 size=   62976kB time=00:00:04.48 bitrate=115068.9kbits/s speed=0.0423x    frame=  324 fps=3.0 q=31.0 size=   63232kB time=00:00:04.51 bitrate=114684.0kbits/s speed=0.0425x    frame=  326 fps=3.0 q=31.0 size=   64000kB time=00:00:04.55 bitrate=115226.5kbits/s speed=0.0425x    frame=  330 fps=3.0 q=31.0 size=   64768kB time=00:00:04.61 bitrate=114925.4kbits/s speed=0.0424x    frame=  334 fps=3.0 q=31.0 size=   65792kB time=00:00:04.68 bitrate=115080.6kbits/s speed=0.0425x    frame=  338 fps=3.0 q=31.0 size=   66816kB time=00:00:04.75 bitrate=115231.5kbits/s speed=0.0425x    frame=  340 fps=3.0 q=31.0 size=   67072kB time=00:00:04.78 bitrate=114866.9kbits/s speed=0.0426x    frame=  342 fps=3.0 q=31.0 size=   67840kB time=00:00:04.81 bitrate=115378.1kbits/s speed=0.0426x    frame=  345 fps=3.0 q=31.0 size=   68608kB time=00:00:04.86 bitrate=115485.5kbits/s speed=0.0429x    frame=  346 fps=3.0 q=31.0 size=   68864kB time=00:00:04.88 bitrate=115520.8kbits/s speed=0.0426x    frame=  347 fps=3.0 q=31.0 size=   68864kB time=00:00:04.90 bitrate=115127.9kbits/s speed=0.0425x    frame=  350 fps=3.0 q=31.0 size=   69632kB time=00:00:04.95 bitrate=115236.0kbits/s speed=0.0428x    frame=  354 fps=3.0 q=31.0 size=   70656kB time=00:00:05.01 bitrate=115376.8kbits/s speed=0.0426x    frame=  358 fps=3.0 q=31.0 size=   71680kB time=00:00:05.08 bitrate=115513.8kbits/s speed=0.0428x    frame=  362 fps=3.0 q=31.0 size=   72448kB time=00:00:05.15 bitrate=115240.2kbits/s speed=0.0428x    frame=  366 fps=3.0 q=31.0 size=   73472kB time=00:00:05.21 bitrate=115375.5kbits/s speed=0.043x    frame=  370 fps=3.0 q=31.0 size=   74240kB time=00:00:05.28 bitrate=115110.5kbits/s speed=0.0429x    frame=  374 fps=3.0 q=31.0 size=   75264kB time=00:00:05.35 bitrate=115244.0kbits/s speed=0.0431x    frame=  377 fps=3.0 q=31.0 size=   75776kB time=00:00:05.40 bitrate=114953.7kbits/s speed=0.0433x    frame=  378 fps=3.0 q=31.0 size=   76032kB time=00:00:05.41 bitrate=114987.1kbits/s speed=0.043x    frame=  382 fps=3.0 q=31.0 size=   77056kB time=00:00:05.48 bitrate=115119.0kbits/s speed=0.0432x    frame=  386 fps=3.0 q=31.0 size=   77824kB time=00:00:05.55 bitrate=114869.7kbits/s speed=0.0431x    frame=  389 fps=3.0 q=31.0 size=   78336kB time=00:00:05.60 bitrate=114593.1kbits/s speed=0.0433x    frame=  390 fps=3.0 q=31.0 size=   78592kB time=00:00:05.61 bitrate=114626.4kbits/s speed=0.0432x    frame=  394 fps=3.0 q=31.0 size=   79616kB time=00:00:05.68 bitrate=114757.9kbits/s speed=0.0432x    frame=  398 fps=3.0 q=31.0 size=   80384kB time=00:00:05.75 bitrate=114521.5kbits/s speed=0.0434x    frame=  401 fps=3.0 q=31.0 size=   80896kB time=00:00:05.80 bitrate=114257.4kbits/s speed=0.0436x    frame=  402 fps=3.0 q=31.0 size=   81152kB time=00:00:05.81 bitrate=114290.5kbits/s speed=0.0433x    frame=  404 fps=3.0 q=31.0 size=   81408kB time=00:00:05.85 bitrate=113997.8kbits/s speed=0.0434x    frame=  407 fps=3.0 q=31.0 size=   82176kB time=00:00:05.90 bitrate=114098.1kbits/s speed=0.0436x    frame=  410 fps=3.0 q=31.0 size=   82688kB time=00:00:05.95 bitrate=113844.2kbits/s speed=0.0434x    frame=  414 fps=3.0 q=31.0 size=   83456kB time=00:00:06.01 bitrate=113628.4kbits/s speed=0.0436x    frame=  418 fps=3.0 q=31.0 size=   84480kB time=00:00:06.08 bitrate=113762.2kbits/s speed=0.0435x    frame=  422 fps=3.0 q=31.0 size=   85248kB time=00:00:06.15 bitrate=113552.0kbits/s speed=0.0437x    frame=  426 fps=3.0 q=31.0 size=   86016kB time=00:00:06.21 bitrate=113346.3kbits/s speed=0.0436x    frame=  430 fps=3.0 q=31.0 size=   86784kB time=00:00:06.28 bitrate=113145.0kbits/s speed=0.0439x    frame=  434 fps=3.0 q=31.0 size=   87552kB time=00:00:06.35 bitrate=112947.9kbits/s speed=0.0437x    frame=  438 fps=3.0 q=31.0 size=   88320kB time=00:00:06.41 bitrate=112754.9kbits/s speed=0.0439x    frame=  442 fps=3.0 q=31.0 size=   89088kB time=00:00:06.48 bitrate=112565.8kbits/s speed=0.0439x    frame=  446 fps=3.0 q=31.0 size=   89856kB time=00:00:06.55 bitrate=112380.7kbits/s speed=0.0441x    frame=  450 fps=3.0 q=31.0 size=   90624kB time=00:00:06.61 bitrate=112199.2kbits/s speed=0.044x    frame=  454 fps=3.0 q=31.0 size=   91392kB time=00:00:06.68 bitrate=112021.4kbits/s speed=0.0441x    frame=  457 fps=3.0 q=31.0 size=   91904kB time=00:00:06.73 bitrate=111812.5kbits/s speed=0.0443x    frame=  458 fps=3.0 q=31.0 size=   92160kB time=00:00:06.75 bitrate=111847.1kbits/s speed=0.0441x    frame=  462 fps=3.0 q=31.0 size=   92928kB time=00:00:06.81 bitrate=111676.2kbits/s speed=0.0442x    frame=  466 fps=3.0 q=31.0 size=   93440kB time=00:00:06.88 bitrate=111203.9kbits/s speed=0.0442x    frame=  470 fps=3.0 q=31.0 size=   94208kB time=00:00:06.95 bitrate=111042.4kbits/s speed=0.0443x    frame=  474 fps=3.0 q=31.0 size=   94976kB time=00:00:07.01 bitrate=110884.1kbits/s speed=0.0443x    frame=  478 fps=3.0 q=31.0 size=   95744kB time=00:00:07.08 bitrate=110728.7kbits/s speed=0.0444x    frame=  482 fps=3.0 q=31.0 size=   96512kB time=00:00:07.15 bitrate=110576.1kbits/s speed=0.0444x    frame=  485 fps=3.0 q=31.0 size=   97024kB time=00:00:07.20 bitrate=110390.8kbits/s speed=0.0446x    frame=  488 fps=3.0 q=31.0 size=   97280kB time=00:00:07.25 bitrate=109918.7kbits/s speed=0.0447x    frame=  490 fps=3.0 q=31.0 size=   97792kB time=00:00:07.28 bitrate=109991.6kbits/s speed=0.0445x    frame=  496 fps=3.0 q=31.0 size=   99072kB time=00:00:07.38 bitrate=109922.0kbits/s speed=0.0449x    frame=  498 fps=3.0 q=31.0 size=   99584kB time=00:00:07.41 bitrate=109993.5kbits/s speed=0.0447x    frame=  500 fps=2.8 q=-1.0 Lsize=  108909kB time=00:00:08.28 bitrate=107707.6kbits/s speed=0.0461x    
video:108902kB audio:0kB subtitle:0kB other streams:0kB global headers:0kB muxing overhead: 0.006769%
[libx264 @ 0x55744aa7f900] frame I:4     Avg QP:28.90  size:629540
[libx264 @ 0x55744aa7f900] frame P:126   Avg QP:31.19  size:376756
[libx264 @ 0x55744aa7f900] frame B:370   Avg QP:32.33  size:166285
[libx264 @ 0x55744aa7f900] consecutive B-frames:  1.0%  0.8%  0.6% 97.6%
[libx264 @ 0x55744aa7f900] mb I  I16..4: 10.2% 48.3% 41.5%
[libx264 @ 0x55744aa7f900] mb P  I16..4:  2.2% 19.4%  6.0%  P16..4: 35.4% 28.9%  7.4%  0.0%  0.0%    skip: 0.8%
[libx264 @ 0x55744aa7f900] mb B  I16..4:  0.1%  1.2%  0.5%  B16..8: 45.0% 11.6%  3.5%  direct:12.4%  skip:25.6%  L0:42.8% L1:44.8% BI:12.3%
[libx264 @ 0x55744aa7f900] 8x8 transform intra:68.0% inter:53.3%
[libx264 @ 0x55744aa7f900] coded y,uvDC,uvAC intra: 88.1% 84.8% 44.6% inter: 42.6% 33.2% 3.4%
[libx264 @ 0x55744aa7f900] i16 v,h,dc,p:  1% 69%  6% 24%
[libx264 @ 0x55744aa7f900] i8 v,h,dc,ddl,ddr,vr,hd,vl,hu:  3% 41%  7%  4%  6%  3% 17%  3% 16%
[libx264 @ 0x55744aa7f900] i4 v,h,dc,ddl,ddr,vr,hd,vl,hu:  4% 40% 10%  5%  7%  3% 15%  3% 13%
[libx264 @ 0x55744aa7f900] i8c dc,h,v,p: 42% 45%  5%  8%
[libx264 @ 0x55744aa7f900] Weighted P-Frames: Y:1.6% UV:0.0%
[libx264 @ 0x55744aa7f900] ref P L0: 48.9% 16.6% 22.8% 11.6%  0.1%
[libx264 @ 0x55744aa7f900] ref B L0: 92.8%  5.1%  2.0%
[libx264 @ 0x55744aa7f900] ref B L1: 99.2%  0.8%
[libx264 @ 0x55744aa7f900] kb/s:107054.27
	Command being timed: "/usr/bin/ffmpeg -i ../.././Samples/9_AVC_8bits_3840x2160_60_000fps.mkv -c:v libx264 -f mov /home/aleksandr/Pract/Samples/9_AVC_8bits_3840x2160_60_000fps.mkv_tc/output_tc2.mov"
	User time (seconds): 702.83
	System time (seconds): 0.98
	Percent of CPU this job got: 390%
	Elapsed (wall clock) time (h:mm:ss or m:ss): 3:00.20
	Average shared text size (kbytes): 0
	Average unshared data size (kbytes): 0
	Average stack size (kbytes): 0
	Average total size (kbytes): 0
	Maximum resident set size (kbytes): 2143340
	Average resident set size (kbytes): 0
	Major (requiring I/O) page faults: 22
	Minor (reclaiming a frame) page faults: 85397
	Voluntary context switches: 18974
	Involuntary context switches: 66151
	Swaps: 0
	File system inputs: 304
	File system outputs: 217952
	Socket messages sent: 0
	Socket messages received: 0
	Signals delivered: 0
	Page size (bytes): 4096
	Exit status: 0
